<svg width="724" height="341" viewBox="0 0 724 341" fill="none" xmlns="http://www.w3.org/2000/svg">
<path d="M280 209.5L340.5 174V304.5L280 264V209.5Z" fill="#0E2137"/>
<path fill-rule="evenodd" clip-rule="evenodd" d="M0 148C0 142.477 4.47715 138 10 138H278C283.523 138 288 142.477 288 148V190.163L342.283 156.969C345.369 155.081 349.235 155.008 352.39 156.777C355.546 158.547 357.5 161.882 357.5 165.5V312.5C357.5 316.155 355.506 319.518 352.3 321.273C349.094 323.027 345.186 322.892 342.108 320.922L272.608 276.422C269.737 274.583 268 271.409 268 268V158H20V320.5H278C283.523 320.5 288 324.977 288 330.5C288 336.023 283.523 340.5 278 340.5H10C4.47715 340.5 0 336.023 0 330.5V148ZM288 213.606V262.529L337.5 294.223V183.337L288 213.606Z" fill="#EB2FA0"/>
<path fill-rule="evenodd" clip-rule="evenodd" d="M105.803 182.458C108.784 180.643 112.496 180.514 115.596 182.118L202.596 227.118C205.846 228.799 207.918 232.121 207.999 235.779C208.08 239.437 206.157 242.847 202.985 244.67L115.985 294.67C111.196 297.422 105.083 295.771 102.332 290.983C99.5796 286.194 101.23 280.082 106.019 277.33L177.129 236.462L121.002 207.431V236C121.002 241.523 116.525 246 111.002 246C105.479 246 101.002 241.523 101.002 236V191C101.002 187.51 102.821 184.272 105.803 182.458Z" fill="#EB2FA0"/>
<circle cx="201" cy="79" r="79" fill="#EB2FA0"/>
<circle cx="201" cy="79" r="53.4769" fill="#0E2137"/>
<circle cx="75" cy="93" r="65" fill="#EB2FA0"/>
<circle cx="75" cy="93" r="44" fill="#0E2137"/>
<path d="M420.632 147.664C421.595 147.664 422.304 148.044 422.76 148.804C423.267 149.513 423.52 150.299 423.52 151.16C423.52 152.224 423.343 152.984 422.988 153.44C422.684 153.845 422.076 154.276 421.164 154.732C419.036 155.745 416.401 156.556 413.26 157.164C410.119 157.772 406.749 158.076 403.152 158.076C398.643 158.076 395.324 157.316 393.196 155.796C391.119 154.276 389.827 152.452 389.32 150.324C388.864 148.145 388.636 145.308 388.636 141.812C388.636 138.063 388.788 134.389 389.092 130.792C389.396 127.144 389.928 122.508 390.688 116.884C391.043 114.452 392.005 112.704 393.576 111.64C395.147 110.525 396.869 109.968 398.744 109.968C400.315 109.968 402.873 109.917 406.42 109.816L413.032 109.74C415.768 109.74 417.744 109.816 418.96 109.968C420.48 110.272 421.595 110.627 422.304 111.032C423.064 111.387 423.444 112.02 423.444 112.932C423.444 113.945 423.089 114.933 422.38 115.896C421.721 116.859 420.708 117.34 419.34 117.34C417.769 117.34 415.515 117.239 412.576 117.036C409.637 116.833 407.433 116.732 405.964 116.732C404.697 116.732 403.456 116.808 402.24 116.96C400.821 117.061 399.808 117.239 399.2 117.492C398.592 117.745 398.237 118.176 398.136 118.784C397.427 124.003 397.072 127.853 397.072 130.336C398.237 130.488 399.377 130.564 400.492 130.564C401.911 130.564 403.431 130.488 405.052 130.336C406.673 130.184 407.712 130.083 408.168 130.032C410.853 129.779 413.159 129.652 415.084 129.652C416.199 129.652 417.035 129.855 417.592 130.26C418.2 130.665 418.504 131.223 418.504 131.932C418.504 133.047 418.2 133.908 417.592 134.516C417.035 135.124 416.021 135.58 414.552 135.884C412.779 136.239 410.575 136.517 407.94 136.72C405.356 136.923 402.823 137.024 400.34 137.024C399.479 137.024 398.288 136.973 396.768 136.872C396.616 139.963 396.54 142.825 396.54 145.46C396.54 149.057 398.921 150.856 403.684 150.856C406.217 150.856 408.32 150.679 409.992 150.324C411.664 149.969 413.589 149.463 415.768 148.804C417.795 148.044 419.416 147.664 420.632 147.664Z" fill="#E0E0E0"/>
<path d="M465.53 144.244C465.53 146.625 464.972 148.677 463.858 150.4C462.794 152.072 461.02 153.617 458.538 155.036C456.866 156.049 454.915 156.809 452.686 157.316C450.456 157.823 448.202 158.076 445.922 158.076C443.591 158.076 440.703 157.316 437.258 155.796C434.775 154.58 432.799 153.136 431.33 151.464C429.911 149.792 429.202 147.968 429.202 145.992C429.202 144.624 429.506 143.636 430.114 143.028C430.722 142.369 431.71 142.04 433.078 142.04C433.787 142.04 434.522 142.344 435.282 142.952C436.042 143.509 436.498 144.067 436.65 144.624C437.359 146.701 438.6 148.297 440.374 149.412C442.147 150.476 444.351 151.008 446.986 151.008C450.026 151.008 452.559 150.451 454.586 149.336C456.663 148.221 457.702 146.727 457.702 144.852C457.702 143.028 456.587 141.407 454.358 139.988C452.128 138.569 449.848 137.581 447.518 137.024C444.174 136.112 441.21 135.023 438.626 133.756C435.94 132.439 433.939 130.817 432.622 128.892C431.304 126.967 430.646 124.94 430.646 122.812C430.646 120.836 431.33 118.835 432.698 116.808C434.066 114.731 435.687 113.236 437.562 112.324C438.575 111.817 440.298 111.285 442.73 110.728C445.212 110.12 447.011 109.816 448.126 109.816C449.595 109.816 451.216 109.993 452.99 110.348C454.763 110.703 456.207 111.209 457.322 111.868C459.551 113.135 461.198 114.275 462.262 115.288C463.326 116.301 463.858 117.568 463.858 119.088C463.858 120 463.503 120.811 462.794 121.52C462.135 122.229 460.97 122.584 459.298 122.584C458.892 122.584 458.487 122.407 458.082 122.052C457.676 121.697 457.17 121.165 456.562 120.456C455.751 119.392 454.966 118.683 454.206 118.328C453.446 118.075 452.331 117.796 450.862 117.492C449.443 117.188 448.176 117.036 447.062 117.036C445.846 117.036 444.579 117.289 443.262 117.796C441.944 118.303 440.83 119.037 439.918 120C439.056 120.912 438.626 121.976 438.626 123.192C438.626 124.205 439.082 125.092 439.994 125.852C440.956 126.561 442.096 127.144 443.414 127.6C444.934 128.208 446.58 128.74 448.354 129.196C450.684 129.905 452.584 130.564 454.054 131.172C455.574 131.729 457.043 132.439 458.462 133.3C460.944 134.769 462.743 136.289 463.858 137.86C464.972 139.38 465.53 141.508 465.53 144.244Z" fill="#E0E0E0"/>
<path d="M469.445 113.692C469.445 111.513 471.041 110.424 474.233 110.424C475.601 110.424 478.211 110.475 482.061 110.576C486.317 110.779 489.535 110.88 491.713 110.88C493.487 110.88 495.64 110.779 498.173 110.576C499.896 110.475 500.985 110.424 501.441 110.424C504.228 110.525 506.584 111.032 508.509 111.944C509.067 112.197 509.523 112.501 509.877 112.856C510.232 113.211 510.409 113.793 510.409 114.604C510.409 115.719 510.055 116.681 509.345 117.492C508.636 118.252 507.775 118.632 506.761 118.632C505.647 118.632 504.025 118.48 501.897 118.176C500.023 117.821 498.376 117.644 496.957 117.644C495.589 117.644 494.551 117.669 493.841 117.72C493.689 119.392 493.613 123.395 493.613 129.728C493.613 137.277 493.841 144.928 494.297 152.68L494.449 154.884C494.449 156.961 493.259 158 490.877 158C489.003 158 487.736 157.569 487.077 156.708C486.419 155.796 486.089 154.428 486.089 152.604C486.089 149.007 485.988 144.523 485.785 139.152C485.583 134.693 485.481 131.527 485.481 129.652C485.481 128.385 485.633 124.509 485.937 118.024L477.045 118.1C474.208 118.1 472.232 117.847 471.117 117.34C470.003 116.783 469.445 115.567 469.445 113.692Z" fill="#E0E0E0"/>
<path d="M551.339 156.86C550.68 155.999 550.123 155.061 549.667 154.048C549.211 152.984 548.73 151.717 548.223 150.248C548.122 149.995 547.818 149.235 547.311 147.968C546.855 146.701 546.323 145.612 545.715 144.7C542.523 145.156 539.914 145.384 537.887 145.384C536.772 145.384 535.531 145.359 534.163 145.308C532.846 145.207 531.858 145.156 531.199 145.156C528.666 144.953 526.639 144.852 525.119 144.852C524.511 145.663 523.979 146.524 523.523 147.436C523.118 148.348 522.586 149.716 521.927 151.54C521.015 154.175 520.23 156.049 519.571 157.164C519.115 157.924 518.228 158.304 516.911 158.304C515.796 158.304 514.758 158.076 513.795 157.62C512.883 157.113 512.427 156.429 512.427 155.568C512.832 153.643 513.466 151.616 514.327 149.488C515.239 147.309 516.531 144.421 518.203 140.824L521.243 133.376C522.915 129.12 524.435 125.472 525.803 122.432C527.222 119.392 529.071 115.795 531.351 111.64C531.655 111.032 532.162 110.525 532.871 110.12C533.58 109.664 534.366 109.436 535.227 109.436C536.19 109.436 536.874 109.512 537.279 109.664C537.735 109.765 538.09 109.968 538.343 110.272C538.596 110.525 538.976 111.083 539.483 111.944C541.206 114.629 542.675 117.391 543.891 120.228C545.158 123.065 546.754 126.992 548.679 132.008L550.275 136.036C551.694 139.684 552.91 142.749 553.923 145.232C554.987 147.664 556.152 149.893 557.419 151.92C558.23 153.237 558.635 154.149 558.635 154.656C558.635 155.872 558.255 156.809 557.495 157.468C556.786 158.076 555.848 158.38 554.683 158.38C553.214 158.38 552.099 157.873 551.339 156.86ZM543.511 138.468C542.7 136.745 541.535 133.756 540.015 129.5C538.444 124.94 536.874 121.317 535.303 118.632C534.34 121.064 532.922 124.205 531.047 128.056C529.78 130.437 528.336 133.883 526.715 138.392C529.958 138.797 533.454 139 537.203 139C539.888 139 541.991 138.823 543.511 138.468Z" fill="#E0E0E0"/>
<path d="M580.876 163.624C580.876 163.067 581.155 162.459 581.712 161.8C582.27 161.192 582.599 160.812 582.7 160.66C583.308 159.9 584.119 159.039 585.132 158.076C581.839 157.823 578.571 156.911 575.328 155.34C572.136 153.719 569.679 151.793 567.956 149.564C566.943 148.095 565.955 145.992 564.992 143.256C564.08 140.469 563.624 138.215 563.624 136.492C563.624 132.084 564.283 127.904 565.6 123.952C566.968 119.949 568.995 116.757 571.68 114.376C573.454 112.755 576.012 111.539 579.356 110.728C582.7 109.917 585.766 109.512 588.552 109.512C591.947 109.512 594.607 109.993 596.532 110.956C598.508 111.868 600.459 113.489 602.384 115.82C603.144 116.732 603.676 117.467 603.98 118.024C604.284 118.581 604.436 119.113 604.436 119.62C604.436 120.228 604.031 120.937 603.22 121.748C602.46 122.559 601.7 122.964 600.94 122.964C599.927 122.964 599.116 122.812 598.508 122.508C597.9 122.204 597.394 121.723 596.988 121.064C596.178 119.848 595.19 118.809 594.024 117.948C592.859 117.036 591.035 116.58 588.552 116.58C586.424 116.58 583.992 117.061 581.256 118.024C578.571 118.987 576.646 120.177 575.48 121.596C574.467 122.863 573.58 124.788 572.82 127.372C572.111 129.956 571.756 132.464 571.756 134.896C571.756 137.835 572.39 140.545 573.656 143.028C574.974 145.46 576.848 147.411 579.28 148.88C581.763 150.349 584.727 151.084 588.172 151.084C590.047 151.084 591.972 150.729 593.948 150.02C595.975 149.26 597.723 148.044 599.192 146.372H599.116C600.028 145.409 601.168 144.928 602.536 144.928C603.347 144.928 604.107 145.283 604.816 145.992C605.576 146.701 605.956 147.411 605.956 148.12C605.956 148.88 605.83 149.564 605.576 150.172C605.374 150.729 604.968 151.363 604.36 152.072C602.688 153.997 600.738 155.416 598.508 156.328C596.33 157.24 593.796 157.797 590.908 158L589.768 159.368L587.336 162.408C589.414 162.611 591.06 163.193 592.276 164.156C593.543 165.169 594.176 166.588 594.176 168.412C594.176 170.033 593.112 171.68 590.984 173.352C590.275 173.859 589.262 174.264 587.944 174.568C586.678 174.923 585.208 175.1 583.536 175.1C582.371 175.1 581.332 174.771 580.42 174.112C579.508 173.504 579.052 172.693 579.052 171.68C579.052 171.275 579.23 170.92 579.584 170.616C579.99 170.312 580.395 170.16 580.8 170.16C581.307 170.16 581.814 170.312 582.32 170.616C582.827 170.92 583.283 171.072 583.688 171.072C584.296 171.072 584.98 170.996 585.74 170.844C586.5 170.692 587.083 170.515 587.488 170.312C587.843 170.109 588.147 169.78 588.4 169.324C588.654 168.868 588.78 168.412 588.78 167.956C588.78 166.436 586.754 165.676 582.7 165.676C582.244 165.676 581.814 165.423 581.408 164.916C581.054 164.46 580.876 164.029 580.876 163.624Z" fill="#E0E0E0"/>
<path d="M620.136 103.052C620.136 101.785 620.592 100.645 621.504 99.632C622.416 98.6187 623.556 97.8333 624.924 97.276C626.292 96.668 627.609 96.364 628.876 96.364C630.801 96.364 632.651 96.972 634.424 98.188C635.843 99.2013 637.008 99.6827 637.92 99.632C638.427 99.632 638.832 99.5053 639.136 99.252C639.44 98.9986 639.668 98.72 639.82 98.416C640.023 98.112 640.149 97.9093 640.2 97.808C640.504 97.352 640.833 97.0226 641.188 96.82C641.543 96.5666 641.999 96.44 642.556 96.44C643.215 96.44 643.797 96.6426 644.304 97.048C644.861 97.4027 645.14 97.96 645.14 98.72C645.14 99.7333 644.76 100.747 644 101.76C643.291 102.723 642.353 103.533 641.188 104.192C640.073 104.8 638.933 105.104 637.768 105.104C636.451 105.104 635.387 104.927 634.576 104.572C633.765 104.217 632.879 103.685 631.916 102.976C631.308 102.52 630.801 102.191 630.396 101.988C630.041 101.785 629.636 101.684 629.18 101.684C627.66 101.684 626.495 102.292 625.684 103.508C624.873 104.673 623.835 105.256 622.568 105.256C622.061 105.256 621.529 105.053 620.972 104.648C620.415 104.243 620.136 103.711 620.136 103.052ZM648.788 156.86C649.548 157.873 650.663 158.38 652.132 158.38C653.298 158.38 654.235 158.076 654.944 157.468C655.704 156.809 656.084 155.872 656.084 154.656C656.084 154.149 655.679 153.237 654.868 151.92C653.602 149.893 652.436 147.664 651.372 145.232C650.359 142.749 649.143 139.684 647.724 136.036L646.128 132.008C644.203 126.992 642.607 123.065 641.34 120.228C640.124 117.391 638.655 114.629 636.932 111.944C636.425 111.083 636.045 110.525 635.792 110.272C635.539 109.968 635.184 109.765 634.728 109.664C634.323 109.512 633.639 109.436 632.676 109.436C631.815 109.436 631.029 109.664 630.32 110.12C629.611 110.525 629.104 111.032 628.8 111.64C626.52 115.795 624.671 119.392 623.252 122.432C621.884 125.472 620.364 129.12 618.692 133.376L615.652 140.824C613.98 144.421 612.688 147.309 611.776 149.488C610.915 151.616 610.281 153.643 609.876 155.568C609.876 156.429 610.332 157.113 611.244 157.62C612.207 158.076 613.245 158.304 614.36 158.304C615.677 158.304 616.564 157.924 617.02 157.164C617.679 156.049 618.464 154.175 619.376 151.54C620.035 149.716 620.567 148.348 620.972 147.436C621.428 146.524 621.96 145.663 622.568 144.852C624.088 144.852 626.115 144.953 628.648 145.156C629.307 145.156 630.295 145.207 631.612 145.308C632.98 145.359 634.221 145.384 635.336 145.384C637.363 145.384 639.972 145.156 643.164 144.7C643.772 145.612 644.304 146.701 644.76 147.968C645.267 149.235 645.571 149.995 645.672 150.248C646.179 151.717 646.66 152.984 647.116 154.048C647.572 155.061 648.129 155.999 648.788 156.86ZM640.96 138.468C639.44 138.823 637.337 139 634.652 139C630.903 139 627.407 138.797 624.164 138.392C625.785 133.883 627.229 130.437 628.496 128.056C630.371 124.205 631.789 121.064 632.752 118.632C634.323 121.317 635.893 124.94 637.464 129.5C638.984 133.756 640.149 136.745 640.96 138.468Z" fill="#E0E0E0"/>
<path d="M684.937 109.664C688.18 109.664 690.967 110.069 693.297 110.88C695.679 111.691 697.781 112.932 699.605 114.604C702.797 117.492 705.027 120.659 706.293 124.104C707.611 127.499 708.269 131.856 708.269 137.176C708.269 138.493 708.092 139.735 707.737 140.9C707.383 142.015 706.851 143.383 706.141 145.004L705.153 147.436C704.444 149.361 702.975 151.16 700.745 152.832C698.516 154.453 696.008 155.745 693.221 156.708C690.435 157.671 687.901 158.152 685.621 158.152C680.96 158.152 676.881 157.392 673.385 155.872C669.94 154.301 667.077 151.844 664.797 148.5C663.632 146.727 662.72 144.751 662.061 142.572C661.403 140.343 661.073 138.215 661.073 136.188C661.073 131.02 661.985 126.536 663.809 122.736C665.684 118.885 668.268 115.896 671.561 113.768C673.436 112.653 675.665 111.691 678.249 110.88C680.884 110.069 683.113 109.664 684.937 109.664ZM669.129 136.188C669.129 138.823 669.763 141.28 671.029 143.56C672.347 145.789 674.095 147.563 676.273 148.88C678.503 150.197 680.935 150.856 683.569 150.856C688.991 150.856 693.12 149.488 695.957 146.752C698.845 144.016 700.289 140.165 700.289 135.2C700.289 131.349 699.859 128.309 698.997 126.08C698.136 123.851 696.591 121.849 694.361 120.076C693.145 119.063 691.828 118.353 690.409 117.948C689.041 117.492 687.42 117.264 685.545 117.264C682.303 117.264 679.44 118.075 676.957 119.696C674.475 121.317 672.549 123.572 671.181 126.46C669.813 129.348 669.129 132.591 669.129 136.188Z" fill="#E0E0E0"/>
<path d="M399.5 270.4C399.3 271.4 398.7 272.267 397.7 273C396.767 273.667 395.433 274 393.7 274C392.233 274 391.067 273.6 390.2 272.8C389.4 272 388.967 271.167 388.9 270.3C389.3 267.5 389.5 263.3 389.5 257.7C389.5 254.367 389.3 249.233 388.9 242.3C388.433 235.767 388.2 229.967 388.2 224.9C388.2 222.167 388.333 219.367 388.6 216.5C388.6 215.567 389.133 214.567 390.2 213.5C391.333 212.433 392.867 211.767 394.8 211.5C401.133 210.833 408.9 210.5 418.1 210.5H421.3C423.7 210.5 426.033 210.933 428.3 211.8C430.633 212.667 431.8 214.167 431.8 216.3C431.8 217.7 431.467 218.8 430.8 219.6C430.133 220.4 428.9 220.8 427.1 220.8C426.233 220.8 425.233 220.733 424.1 220.6C422.967 220.467 422.167 220.367 421.7 220.3C419.167 219.9 417.2 219.7 415.8 219.7C408.067 219.7 402.233 220.233 398.3 221.3C398.3 223.5 398.367 227.067 398.5 232L398.6 238.4C402.067 238.4 405.167 238.267 407.9 238C410.633 237.667 412.2 237.467 412.6 237.4C416.067 237 418.367 236.8 419.5 236.8C421.1 236.8 422.433 237.167 423.5 237.9C424.633 238.567 425.2 239.633 425.2 241.1C425.2 244.433 422.867 246.1 418.2 246.1C417.067 246.1 416.067 246.133 415.2 246.2C414.333 246.267 413.6 246.333 413 246.4C410.6 246.667 408.7 246.8 407.3 246.8C404.233 246.8 401.633 246.9 399.5 247.1C399.5 249.567 399.6 252.167 399.8 254.9C399.8 255.767 399.833 257.1 399.9 258.9C400.033 260.7 400.1 262.333 400.1 263.8C400.1 265.067 400.067 266.233 400 267.3C399.933 268.367 399.767 269.4 399.5 270.4Z" fill="#EB2FA0"/>
<path d="M455.57 218.8C455.37 223.067 455.27 227.167 455.27 231.1C455.27 235.167 455.536 241.133 456.07 249C456.136 250.2 456.27 252.633 456.47 256.3C456.67 259.9 456.77 263.2 456.77 266.2C457.436 266.133 458.136 266.033 458.87 265.9C459.67 265.767 460.27 265.7 460.67 265.7C462.136 265.7 463.303 266.067 464.17 266.8C465.036 267.533 465.47 268.667 465.47 270.2C465.47 271.2 465.07 271.967 464.27 272.5C463.47 273.033 462.07 273.433 460.07 273.7C458.136 273.9 455.303 274 451.57 274C447.436 274 444.336 273.867 442.27 273.6C440.203 273.333 438.77 272.833 437.97 272.1C437.17 271.3 436.77 270.133 436.77 268.6C436.77 267.467 437.136 266.7 437.87 266.3C438.603 265.9 439.636 265.7 440.97 265.7L443.07 265.8L446.37 266L445.87 254.2C445.47 247.8 445.27 241.933 445.27 236.6C445.27 233.733 445.37 229.8 445.57 224.8L445.77 219.3C443.503 219.433 441.736 219.5 440.47 219.5C439.003 219.5 438.003 219.233 437.47 218.7C437.003 218.167 436.77 217.067 436.77 215.4C436.77 213.533 438.036 212.333 440.57 211.8C443.17 211.267 447.103 211 452.37 211C456.436 211 459.47 211.133 461.47 211.4C463.536 211.667 464.57 212.267 464.57 213.2C464.57 215.467 464.07 216.967 463.07 217.7C462.136 218.367 460.303 218.7 457.57 218.7L455.57 218.8Z" fill="#EB2FA0"/>
<path d="M481.874 210.5C483.141 210.5 484.274 210.833 485.274 211.5C486.341 212.167 486.974 213.333 487.174 215C487.974 220.267 488.474 225.533 488.674 230.8C488.941 236 489.074 241.9 489.074 248.5C489.074 251.3 488.841 256.4 488.374 263.8C491.308 264.067 493.574 264.2 495.174 264.2C496.308 264.2 498.874 264.033 502.874 263.7C505.208 263.367 507.241 263.2 508.974 263.2C510.574 263.2 512.041 263.367 513.374 263.7C514.708 263.967 516.074 264.433 517.474 265.1C518.874 265.9 519.574 267.133 519.574 268.8C519.574 270.133 519.141 271.333 518.274 272.4C517.474 273.467 516.508 274 515.374 274C514.574 274 513.308 273.867 511.574 273.6C508.441 273.133 505.441 272.9 502.574 272.9C501.641 272.9 500.574 272.967 499.374 273.1C498.241 273.167 497.408 273.2 496.874 273.2C495.274 273.4 493.674 273.5 492.074 273.5C488.808 273.5 485.874 273.333 483.274 273C481.941 272.867 480.608 272.367 479.274 271.5C477.941 270.567 477.274 269.233 477.274 267.5C477.274 266.5 477.408 263.933 477.674 259.8C478.141 252.933 478.374 247.7 478.374 244.1C478.374 241.3 478.241 238.367 477.974 235.3C477.708 232.233 477.541 230.3 477.474 229.5C476.874 223.833 476.574 219.167 476.574 215.5C476.574 213.767 476.974 212.5 477.774 211.7C478.641 210.9 480.008 210.5 481.874 210.5Z" fill="#EB2FA0"/>
<path d="M584.663 210.8C585.596 210.8 586.729 211.433 588.063 212.7C589.463 213.9 590.163 214.933 590.163 215.8C590.163 219.867 590.029 225.433 589.763 232.5C589.696 234.233 589.629 236.333 589.563 238.8C589.496 241.2 589.463 244 589.463 247.2C589.463 252.533 589.529 257.033 589.663 260.7C589.863 264.3 590.263 267.267 590.863 269.6C590.796 271.2 590.163 272.367 588.963 273.1C587.763 273.767 586.529 274.1 585.263 274.1C582.663 274.1 580.996 273.2 580.263 271.4C579.596 269.6 579.263 266.9 579.263 263.3C579.263 248.633 579.429 236.8 579.763 227.8C578.229 229.467 576.763 231.367 575.363 233.5C573.963 235.633 572.229 238.433 570.163 241.9C567.496 246.367 565.329 249.767 563.663 252.1C562.796 253.167 562.029 253.9 561.363 254.3C560.696 254.7 559.696 254.9 558.363 254.9C556.696 254.9 555.396 254.5 554.463 253.7C553.596 252.9 552.563 251.6 551.363 249.8C549.629 247.2 546.896 242.7 543.163 236.3L537.863 227.6C537.863 238.533 538.063 247.5 538.463 254.5C538.796 258.833 538.963 263.4 538.963 268.2C538.963 269.8 538.529 271.167 537.663 272.3C536.863 273.367 535.629 273.9 533.963 273.9C532.163 273.9 530.729 273.567 529.663 272.9C528.663 272.233 528.129 271.233 528.063 269.9C528.129 268.767 528.163 266.9 528.163 264.3C528.163 255.567 528.029 247.433 527.763 239.9L527.563 232.9C527.496 230.833 527.429 228.433 527.363 225.7C527.296 222.9 527.263 219.867 527.263 216.6C527.263 212.6 529.429 210.6 533.763 210.6C535.096 210.6 536.429 210.933 537.763 211.6C539.163 212.267 540.196 213.233 540.863 214.5C541.996 216.9 544.663 221.5 548.863 228.3C553.063 235.033 556.196 239.933 558.263 243C559.663 241.2 560.929 239.333 562.063 237.4C563.263 235.467 564.263 233.8 565.063 232.4C567.529 228.4 570.196 224.633 573.063 221.1C575.263 218.433 577.063 215.967 578.463 213.7C579.129 212.9 579.996 212.233 581.063 211.7C582.196 211.1 583.396 210.8 584.663 210.8Z" fill="#EB2FA0"/>
<path d="M650.79 267.6C650.857 269 650.69 270 650.29 270.6C649.89 271.133 649.09 271.7 647.89 272.3C646.09 273.167 643.957 273.733 641.49 274C639.09 274.267 635.99 274.4 632.19 274.4H625.39C619.457 274.4 615.057 273.4 612.19 271.4C609.323 269.333 607.523 266.867 606.79 264C606.057 261.133 605.623 257.433 605.49 252.9C605.423 251.367 605.39 249.1 605.39 246.1C605.39 239.567 605.957 230.833 607.09 219.9C607.423 216.7 608.59 214.4 610.59 213C612.59 211.533 614.857 210.8 617.39 210.8C619.457 210.8 622.823 210.733 627.49 210.6L636.29 210.5C639.89 210.5 642.49 210.6 644.09 210.8C646.09 211.2 647.59 211.667 648.59 212.2C649.59 212.667 650.123 213.5 650.19 214.7C650.19 216.033 649.757 217.333 648.89 218.6C648.023 219.867 646.69 220.5 644.89 220.5C642.823 220.5 639.857 220.367 635.99 220.1C632.123 219.833 629.19 219.7 627.19 219.7C625.39 219.7 623.757 219.8 622.29 220C620.423 220.133 619.09 220.367 618.29 220.7C617.49 221.033 617.057 221.6 616.99 222.4C616.257 229.667 615.957 234.733 616.09 237.6C617.623 237.8 619.157 237.9 620.69 237.9C622.223 237.9 624.323 237.767 626.99 237.5C627.657 237.433 628.49 237.367 629.49 237.3C630.49 237.233 631.623 237.2 632.89 237.2C633.623 237.2 634.79 237.267 636.39 237.4L639.49 237.5C642.557 237.5 644.09 238.6 644.09 240.8C644.09 242.133 643.723 243.2 642.99 244C642.257 244.8 640.957 245.4 639.09 245.8C636.557 246.267 632.457 246.5 626.79 246.5H620.69C619.423 246.5 617.857 246.433 615.99 246.3C615.923 247.5 615.89 249.233 615.89 251.5C615.89 254.433 615.923 256.5 615.99 257.7C616.19 262.367 619.423 264.7 625.69 264.7C627.823 264.7 630.09 264.767 632.49 264.9L636.19 265C637.923 265 639.357 264.833 640.49 264.5C641.623 264.1 642.723 263.767 643.79 263.5C644.923 263.167 645.957 263 646.89 263C648.157 263 649.123 263.5 649.79 264.5C650.457 265.433 650.79 266.467 650.79 267.6Z" fill="#EB2FA0"/>
<path d="M706.147 255.9C706.147 259.033 705.414 261.733 703.947 264C702.547 266.2 700.214 268.233 696.947 270.1C694.747 271.433 692.18 272.433 689.247 273.1C686.314 273.767 683.347 274.1 680.347 274.1C677.28 274.1 673.48 273.1 668.947 271.1C665.68 269.5 663.08 267.6 661.147 265.4C659.28 263.2 658.347 260.8 658.347 258.2C658.347 256.4 658.747 255.1 659.547 254.3C660.347 253.433 661.647 253 663.447 253C664.38 253 665.347 253.4 666.347 254.2C667.347 254.933 667.947 255.667 668.147 256.4C669.08 259.133 670.714 261.233 673.047 262.7C675.38 264.1 678.28 264.8 681.747 264.8C685.747 264.8 689.08 264.067 691.747 262.6C694.48 261.133 695.847 259.167 695.847 256.7C695.847 254.3 694.38 252.167 691.447 250.3C688.514 248.433 685.514 247.133 682.447 246.4C678.047 245.2 674.147 243.767 670.747 242.1C667.214 240.367 664.58 238.233 662.847 235.7C661.114 233.167 660.247 230.5 660.247 227.7C660.247 225.1 661.147 222.467 662.947 219.8C664.747 217.067 666.88 215.1 669.347 213.9C670.68 213.233 672.947 212.533 676.147 211.8C679.414 211 681.78 210.6 683.247 210.6C685.18 210.6 687.314 210.833 689.647 211.3C691.98 211.767 693.88 212.433 695.347 213.3C698.28 214.967 700.447 216.467 701.847 217.8C703.247 219.133 703.947 220.8 703.947 222.8C703.947 224 703.48 225.067 702.547 226C701.68 226.933 700.147 227.4 697.947 227.4C697.414 227.4 696.88 227.167 696.347 226.7C695.814 226.233 695.147 225.533 694.347 224.6C693.28 223.2 692.247 222.267 691.247 221.8C690.247 221.467 688.78 221.1 686.847 220.7C684.98 220.3 683.314 220.1 681.847 220.1C680.247 220.1 678.58 220.433 676.847 221.1C675.114 221.767 673.647 222.733 672.447 224C671.314 225.2 670.747 226.6 670.747 228.2C670.747 229.533 671.347 230.7 672.547 231.7C673.814 232.633 675.314 233.4 677.047 234C679.047 234.8 681.214 235.5 683.547 236.1C686.614 237.033 689.114 237.9 691.047 238.7C693.047 239.433 694.98 240.367 696.847 241.5C700.114 243.433 702.48 245.433 703.947 247.5C705.414 249.5 706.147 252.3 706.147 255.9Z" fill="#EB2FA0"/>
<path fill-rule="evenodd" clip-rule="evenodd" d="M373.5 183.886C373.497 182.506 374.613 181.384 375.994 181.38L720.994 180.5C722.375 180.496 723.497 181.613 723.5 182.994C723.504 184.374 722.387 185.496 721.007 185.5L376.006 186.38C374.626 186.384 373.504 185.267 373.5 183.886Z" fill="#E0E0E0"/>
<path fill-rule="evenodd" clip-rule="evenodd" d="M373.5 82.8865C373.497 81.5058 374.613 80.3836 375.994 80.3801L720.994 79.5C722.375 79.4965 723.497 80.6129 723.5 81.9936C723.504 83.3743 722.387 84.4965 721.007 84.5L376.006 85.3801C374.626 85.3836 373.504 84.2672 373.5 82.8865Z" fill="#E0E0E0"/>
</svg>
