<svg width="37" height="37" viewBox="0 0 37 37" fill="none" xmlns="http://www.w3.org/2000/svg">
<path d="M26.2917 23.1667H24.6458L24.0625 22.6042C26.1042 20.2292 27.3333 17.1458 27.3333 13.7917C27.3333 6.3125 21.2708 0.25 13.7917 0.25C6.3125 0.25 0.25 6.3125 0.25 13.7917C0.25 21.2708 6.3125 27.3333 13.7917 27.3333C17.1458 27.3333 20.2292 26.1042 22.6042 24.0625L23.1667 24.6458V26.2917L33.5833 36.6875L36.6875 33.5833L26.2917 23.1667V23.1667ZM13.7917 23.1667C8.60417 23.1667 4.41667 18.9792 4.41667 13.7917C4.41667 8.60417 8.60417 4.41667 13.7917 4.41667C18.9792 4.41667 23.1667 8.60417 23.1667 13.7917C23.1667 18.9792 18.9792 23.1667 13.7917 23.1667Z" fill="#EB2FA0"/>
</svg>
